<?xml version="1.0" encoding="UTF-8"?>
<svg id="Layer_1" data-name="Layer 1" xmlns="http://www.w3.org/2000/svg" viewBox="0 0 544.22 544.22">
  <path fill="#0e76de" d="m272.11,0C2.1,0,0,121.83,0,272.11s2.1,272.11,272.11,272.11,272.11-121.83,272.11-272.11S542.12,0,272.11,0Z"/>
  <path fill="#fff" d="m118.94,424.9c34.19-55.36,68.39-110.73,102.98-166.74h-60.54c30.14-26.57,59.75-52.68,90.24-79.55-8.1-2.63-15.21-4.93-22.54-7.31.34-.58.45-1.07.74-1.22,33.12-16.88,66.63-32.82,102.68-42.62,19.62-5.34,39.5-9.36,59.92-8.7,8.59.28,17.15,2.12,25.66,3.57,1.33.23,3.03,2.02,3.43,3.41,3.91,13.57,4.43,27.47,3.09,41.42-4.45,46.07-21.67,88.02-41.89,128.99-3.13,6.35-6.29,12.68-9.79,19.74-2.58-8.02-4.92-15.27-7.61-23.63-26.54,30.63-52.44,60.53-79.06,91.25v-60.54c-56.05,34.47-111.4,68.51-166.75,102.55-.19-.21-.38-.42-.57-.64Zm97.64-98.09c.34.35.68.7,1.02,1.05,36.38-23.37,72.75-46.73,109.95-70.63v35.5c16.86-19.46,32.82-37.88,49-56.55,2.63,3.14,4.95,5.91,7.35,8.77.68-.74,1.13-1.02,1.28-1.41,1.87-4.91,3.81-9.8,5.51-14.77,9.24-27.07,16.34-54.49,14.54-83.52-.25-4.01-1.7-5.64-5.44-5.64-7.43.01-14.92-.49-22.29.2-26.06,2.42-50.87,9.98-75.16,19.4-.78.3-1.45.91-2.52,1.61,2.87,2.44,5.42,4.6,8.32,7.07-18.69,16.21-37.09,32.16-55.48,48.11l.44,1.14h33.89c-23.85,37.15-47.13,73.42-70.41,109.69Z"/>
</svg>