<?xml version="1.0" encoding="utf-8"?>
<!-- Generator: Adobe Illustrator 28.0.0, SVG Export Plug-In . SVG Version: 6.00 Build 0)  -->
<svg version="1.1" id="Layer_1" xmlns="http://www.w3.org/2000/svg" xmlns:xlink="http://www.w3.org/1999/xlink" x="0px" y="0px"
	 viewBox="0 0 306.3 306.9" style="enable-background:new 0 0 306.3 306.9;" xml:space="preserve">
<path d="M0,306.2c34.2-55.4,68.4-110.7,103-166.7H42.5c30.1-26.6,59.8-52.7,90.2-79.6
	c-8.1-2.6-15.2-4.9-22.5-7.3c0.3-0.6,0.4-1.1,0.7-1.2C144,34.5,177.5,18.6,213.6,8.8c19.6-5.3,39.5-9.4,59.9-8.7
	c8.6,0.3,17.1,2.1,25.7,3.6c1.3,0.2,3,2,3.4,3.4c3.9,13.6,4.4,27.5,3.1,41.4c-4.5,46.1-21.7,88-41.9,129c-3.1,6.4-6.3,12.7-9.8,19.7
	c-2.6-8-4.9-15.3-7.6-23.6c-26.5,30.6-52.4,60.5-79.1,91.2v-60.5C111.2,238.8,55.9,272.8,0.5,306.9C0.4,306.6,0.2,306.4,0,306.2
	L0,306.2z M97.7,208.1c0.3,0.4,0.7,0.7,1,1c36.4-23.4,72.8-46.7,109.9-70.6V174c16.9-19.5,32.8-37.9,49-56.6c2.6,3.1,5,5.9,7.4,8.8
	c0.7-0.7,1.1-1,1.3-1.4c1.9-4.9,3.8-9.8,5.5-14.8c9.2-27.1,16.3-54.5,14.5-83.5c-0.2-4-1.7-5.6-5.4-5.6c-7.4,0-14.9-0.5-22.3,0.2
	c-26.1,2.4-50.9,10-75.2,19.4c-0.8,0.3-1.5,0.9-2.5,1.6c2.9,2.4,5.4,4.6,8.3,7.1c-18.7,16.2-37.1,32.2-55.5,48.1l0.4,1.1h34
	C144.2,135.6,121,171.9,97.7,208.1L97.7,208.1z"/>
</svg>
